<svg xmlns="http://www.w3.org/2000/svg" width="1228.233" height="1197.119" viewBox="0 0 1228.233 1197.119">
  <path id="Icon_awesome-arrow-right" data-name="Icon awesome-arrow-right" d="M522.215,82.83l60.857-60.857a65.519,65.519,0,0,1,92.93,0L1208.906,554.6a65.519,65.519,0,0,1,0,92.93L676,1180.44a65.519,65.519,0,0,1-92.93,0l-60.857-60.857a65.865,65.865,0,0,1,1.1-94.026l330.325-314.7H65.791A65.633,65.633,0,0,1,0,645.067V557.346a65.633,65.633,0,0,1,65.791-65.791H853.636l-330.325-314.7A65.391,65.391,0,0,1,522.215,82.83Z" transform="translate(0 -2.647)" fill="#fff"/>
</svg>
